<?xml version="1.0" encoding="utf-8"?>
<!-- Generator: Adobe Illustrator 25.0.0, SVG Export Plug-In . SVG Version: 6.00 Build 0)  -->
<svg version="1.1" id="Warstwa_1" xmlns="http://www.w3.org/2000/svg" xmlns:xlink="http://www.w3.org/1999/xlink" x="0px" y="0px"
	 viewBox="0 0 280 280" style="enable-background:new 0 0 280 280;" xml:space="preserve">
<path d="M94,9.2C73.7,9.9,54.3,17.6,39,31h27l28-14.4V9.2z M100,9.2v7.4L128,31h27C139.7,17.6,120.3,9.9,100,9.2z M32.8,37
	c-9.2,9.7-16,21.4-20,34.2l16,27.6l23-3.6l21-36.2l-8.4-22C64.4,37,32.8,37,32.8,37z M129.6,37l-8.4,22l12.3,21.3
	c0,0,9.8-6.3,22.9-9.6c8.3-2.1,23.6-2.7,23.6-2.7c-3.9-12.8-9.7-21.1-18.8-30.9H129.6z M79.6,63L59.4,98.2L77.2,129h15.7
	c0,0,2.9-11.4,14.2-26.2c7-9.1,19.3-18.7,19.3-18.7L114.4,63H79.6z M10.8,79.6C9.6,85.3,9,91.2,9,97c0,14.4,3.6,28.7,10.4,41.4
	l7.4-4.4l-1.4-29L10.8,79.6z M77.2,137l-15.4,19l15.4,26.6c3.6,0.7,4.1,0.9,7.1,1.3c2,0.2,2.7,0.3,6.9,0.7c0,0-3.2-10.5-2.9-24.6
	c0.3-12.7,2.6-23,2.6-23L77.2,137L77.2,137z M29.4,139.6l-7,4c10.8,17.3,27.1,30.3,46.4,36.8l-14-24.6L29.4,139.6L29.4,139.6z"/>
<path d="M177,72.2c-20.3,0.7-39.7,8.4-55,21.8h27l28-14.4V72.2z M183,72.2v7.4L211,94h27C222.7,80.6,203.3,72.9,183,72.2z
	 M115.8,100c-9.2,9.7-16,21.4-20,34.2l16,27.6l23-3.6l21-36.2l-8.4-22C147.4,100,115.8,100,115.8,100z M212.6,100l-8.4,22l21,36.2
	l23,3.6l15.8-27.4c-3.9-12.8-10.7-24.6-19.8-34.4C244.2,100,212.6,100,212.6,100z M162.6,126l-20.2,35.2l17.8,30.8h39.6l17.8-30.8
	L197.4,126H162.6z M93.8,142.6c-1.2,5.7-1.8,11.6-1.8,17.4c0,14.4,3.6,28.7,10.4,41.4l7.4-4.4l-1.4-29L93.8,142.6z M266.2,142.8
	L251.6,168l-1.4,29l7.4,4.4c6.8-12.7,10.4-27,10.4-41.4C268,154.2,267.4,148.5,266.2,142.8L266.2,142.8z M160.2,200l-15.4,19
	l15.4,26.6c6.5,1.5,13.1,2.4,19.8,2.4s13.3-0.9,19.8-2.4l15.4-26.6l-15.4-19H160.2z M112.4,202.6l-7,4
	c10.8,17.3,27.1,30.3,46.4,36.8l-14-24.6L112.4,202.6L112.4,202.6z M247.6,202.6l-25.4,16.2l-14,24.4c19.2-6.5,35.6-19.4,46.4-36.6
	L247.6,202.6L247.6,202.6z"/>
</svg>
